<svg width="492" height="204" viewBox="0 0 492 204" fill="none" xmlns="http://www.w3.org/2000/svg">
<path d="M108 73.249V138L13.6021 81.4041C5.16383 76.345 0 67.2282 0 57.3895V8L108 73.249Z" fill="white"/>
<path d="M0 139.249V204L108 139.249V74L0 139.249Z" fill="#C0C0C0" fill-opacity="0.37"/>
<path d="M198.251 80.961H175.177L171.359 92H159.158L179.991 33.983H193.52L214.353 92H202.069L198.251 80.961ZM195.097 71.665L186.714 47.429L178.331 71.665H195.097ZM248.036 45.354C251.522 45.354 254.621 46.1287 257.332 47.678C260.043 49.172 262.146 51.413 263.64 54.401C265.189 57.3337 265.964 60.875 265.964 65.025V92H254.344V66.602C254.344 62.95 253.431 60.1557 251.605 58.219C249.779 56.227 247.289 55.231 244.135 55.231C240.926 55.231 238.38 56.227 236.499 58.219C234.673 60.1557 233.76 62.95 233.76 66.602V92H222.14V30.58H233.76V51.745C235.254 49.753 237.246 48.2037 239.736 47.097C242.226 45.935 244.993 45.354 248.036 45.354ZM319.759 68.013C319.759 69.673 319.648 71.167 319.427 72.495H285.812C286.089 75.815 287.251 78.4157 289.298 80.297C291.345 82.1783 293.863 83.119 296.851 83.119C301.167 83.119 304.238 81.2653 306.064 77.558H318.597C317.269 81.9847 314.724 85.6367 310.961 88.514C307.198 91.336 302.578 92.747 297.1 92.747C292.673 92.747 288.689 91.7787 285.148 89.842C281.662 87.85 278.923 85.0557 276.931 81.459C274.994 77.8623 274.026 73.7123 274.026 69.009C274.026 64.2503 274.994 60.0727 276.931 56.476C278.868 52.8793 281.579 50.1127 285.065 48.176C288.551 46.2393 292.563 45.271 297.1 45.271C301.471 45.271 305.372 46.2117 308.803 48.093C312.289 49.9743 314.973 52.658 316.854 56.144C318.791 59.5747 319.759 63.531 319.759 68.013ZM307.724 64.693C307.669 61.705 306.59 59.3257 304.487 57.555C302.384 55.729 299.811 54.816 296.768 54.816C293.891 54.816 291.456 55.7013 289.464 57.472C287.527 59.1873 286.338 61.5943 285.895 64.693H307.724ZM325.253 68.843C325.253 64.195 326.166 60.0727 327.992 56.476C329.873 52.8793 332.391 50.1127 335.545 48.176C338.754 46.2393 342.323 45.271 346.252 45.271C349.682 45.271 352.67 45.9627 355.216 47.346C357.816 48.7293 359.891 50.4723 361.441 52.575V46.018H373.144V92H361.441V85.277C359.947 87.435 357.872 89.2333 355.216 90.672C352.615 92.0553 349.599 92.747 346.169 92.747C342.295 92.747 338.754 91.751 335.545 89.759C332.391 87.767 329.873 84.9727 327.992 81.376C326.166 77.724 325.253 73.5463 325.253 68.843ZM361.441 69.009C361.441 66.187 360.887 63.78 359.781 61.788C358.674 59.7407 357.18 58.1913 355.299 57.14C353.417 56.0333 351.398 55.48 349.24 55.48C347.082 55.48 345.09 56.0057 343.264 57.057C341.438 58.1083 339.944 59.6577 338.782 61.705C337.675 63.697 337.122 66.0763 337.122 68.843C337.122 71.6097 337.675 74.0443 338.782 76.147C339.944 78.1943 341.438 79.7713 343.264 80.878C345.145 81.9847 347.137 82.538 349.24 82.538C351.398 82.538 353.417 82.0123 355.299 80.961C357.18 79.8543 358.674 78.305 359.781 76.313C360.887 74.2657 361.441 71.831 361.441 69.009ZM381.505 68.843C381.505 64.195 382.418 60.0727 384.244 56.476C386.125 52.8793 388.67 50.1127 391.88 48.176C395.089 46.2393 398.658 45.271 402.587 45.271C405.575 45.271 408.424 45.935 411.136 47.263C413.847 48.5357 416.005 50.251 417.61 52.409V30.58H429.396V92H417.61V85.194C416.171 87.4627 414.151 89.2887 411.551 90.672C408.95 92.0553 405.934 92.747 402.504 92.747C398.63 92.747 395.089 91.751 391.88 89.759C388.67 87.767 386.125 84.9727 384.244 81.376C382.418 77.724 381.505 73.5463 381.505 68.843ZM417.693 69.009C417.693 66.187 417.139 63.78 416.033 61.788C414.926 59.7407 413.432 58.1913 411.551 57.14C409.669 56.0333 407.65 55.48 405.492 55.48C403.334 55.48 401.342 56.0057 399.516 57.057C397.69 58.1083 396.196 59.6577 395.034 61.705C393.927 63.697 393.374 66.0763 393.374 68.843C393.374 71.6097 393.927 74.0443 395.034 76.147C396.196 78.1943 397.69 79.7713 399.516 80.878C401.397 81.9847 403.389 82.538 405.492 82.538C407.65 82.538 409.669 82.0123 411.551 80.961C413.432 79.8543 414.926 78.305 416.033 76.313C417.139 74.2657 417.693 71.831 417.693 69.009Z" fill="white"/>
<path d="M158.905 141.95C158.905 136.251 160.178 131.16 162.723 126.678C165.324 122.141 168.837 118.627 173.264 116.137C177.746 113.592 182.754 112.319 188.287 112.319C194.761 112.319 200.433 113.979 205.302 117.299C210.171 120.619 213.574 125.212 215.511 131.077H202.148C200.82 128.31 198.939 126.235 196.504 124.852C194.125 123.469 191.358 122.777 188.204 122.777C184.829 122.777 181.813 123.579 179.157 125.184C176.556 126.733 174.509 128.947 173.015 131.824C171.576 134.701 170.857 138.077 170.857 141.95C170.857 145.768 171.576 149.143 173.015 152.076C174.509 154.953 176.556 157.194 179.157 158.799C181.813 160.348 184.829 161.123 188.204 161.123C191.358 161.123 194.125 160.431 196.504 159.048C198.939 157.609 200.82 155.507 202.148 152.74H215.511C213.574 158.661 210.171 163.281 205.302 166.601C200.488 169.866 194.816 171.498 188.287 171.498C182.754 171.498 177.746 170.253 173.264 167.763C168.837 165.218 165.324 161.704 162.723 157.222C160.178 152.74 158.905 147.649 158.905 141.95ZM222.448 147.843C222.448 143.195 223.361 139.073 225.187 135.476C227.068 131.879 229.586 129.113 232.74 127.176C235.949 125.239 239.518 124.271 243.447 124.271C246.878 124.271 249.866 124.963 252.411 126.346C255.012 127.729 257.087 129.472 258.636 131.575V125.018H270.339V171H258.636V164.277C257.142 166.435 255.067 168.233 252.411 169.672C249.81 171.055 246.795 171.747 243.364 171.747C239.491 171.747 235.949 170.751 232.74 168.759C229.586 166.767 227.068 163.973 225.187 160.376C223.361 156.724 222.448 152.546 222.448 147.843ZM258.636 148.009C258.636 145.187 258.083 142.78 256.976 140.788C255.869 138.741 254.375 137.191 252.494 136.14C250.613 135.033 248.593 134.48 246.435 134.48C244.277 134.48 242.285 135.006 240.459 136.057C238.633 137.108 237.139 138.658 235.977 140.705C234.87 142.697 234.317 145.076 234.317 147.843C234.317 150.61 234.87 153.044 235.977 155.147C237.139 157.194 238.633 158.771 240.459 159.878C242.34 160.985 244.332 161.538 246.435 161.538C248.593 161.538 250.613 161.012 252.494 159.961C254.375 158.854 255.869 157.305 256.976 155.313C258.083 153.266 258.636 150.831 258.636 148.009ZM293.308 132.156C294.802 129.721 296.739 127.812 299.118 126.429C301.553 125.046 304.319 124.354 307.418 124.354V136.555H304.347C300.695 136.555 297.928 137.413 296.047 139.128C294.221 140.843 293.308 143.831 293.308 148.092V171H281.688V125.018H293.308V132.156ZM357.99 147.013C357.99 148.673 357.879 150.167 357.658 151.495H324.043C324.319 154.815 325.481 157.416 327.529 159.297C329.576 161.178 332.094 162.119 335.082 162.119C339.398 162.119 342.469 160.265 344.295 156.558H356.828C355.5 160.985 352.954 164.637 349.192 167.514C345.429 170.336 340.809 171.747 335.331 171.747C330.904 171.747 326.92 170.779 323.379 168.842C319.893 166.85 317.154 164.056 315.162 160.459C313.225 156.862 312.257 152.712 312.257 148.009C312.257 143.25 313.225 139.073 315.162 135.476C317.098 131.879 319.81 129.113 323.296 127.176C326.782 125.239 330.793 124.271 335.331 124.271C339.702 124.271 343.603 125.212 347.034 127.093C350.52 128.974 353.203 131.658 355.085 135.144C357.021 138.575 357.99 142.531 357.99 147.013ZM345.955 143.693C345.899 140.705 344.82 138.326 342.718 136.555C340.615 134.729 338.042 133.816 334.999 133.816C332.121 133.816 329.687 134.701 327.695 136.472C325.758 138.187 324.568 140.594 324.126 143.693H345.955ZM409.216 147.013C409.216 148.673 409.105 150.167 408.884 151.495H375.269C375.546 154.815 376.708 157.416 378.755 159.297C380.802 161.178 383.32 162.119 386.308 162.119C390.624 162.119 393.695 160.265 395.521 156.558H408.054C406.726 160.985 404.181 164.637 400.418 167.514C396.655 170.336 392.035 171.747 386.557 171.747C382.13 171.747 378.146 170.779 374.605 168.842C371.119 166.85 368.38 164.056 366.388 160.459C364.451 156.862 363.483 152.712 363.483 148.009C363.483 143.25 364.451 139.073 366.388 135.476C368.325 131.879 371.036 129.113 374.522 127.176C378.008 125.239 382.02 124.271 386.557 124.271C390.928 124.271 394.829 125.212 398.26 127.093C401.746 128.974 404.43 131.658 406.311 135.144C408.248 138.575 409.216 142.531 409.216 147.013ZM397.181 143.693C397.126 140.705 396.047 138.326 393.944 136.555C391.841 134.729 389.268 133.816 386.225 133.816C383.348 133.816 380.913 134.701 378.921 136.472C376.984 138.187 375.795 140.594 375.352 143.693H397.181ZM429.318 132.156C430.812 129.721 432.748 127.812 435.128 126.429C437.562 125.046 440.329 124.354 443.428 124.354V136.555H440.357C436.705 136.555 433.938 137.413 432.057 139.128C430.231 140.843 429.318 143.831 429.318 148.092V171H417.698V125.018H429.318V132.156ZM468.85 171.747C465.088 171.747 461.712 171.083 458.724 169.755C455.736 168.372 453.357 166.518 451.586 164.194C449.871 161.87 448.93 159.297 448.764 156.475H460.467C460.689 158.246 461.546 159.712 463.04 160.874C464.59 162.036 466.499 162.617 468.767 162.617C470.981 162.617 472.696 162.174 473.913 161.289C475.186 160.404 475.822 159.269 475.822 157.886C475.822 156.392 475.048 155.285 473.498 154.566C472.004 153.791 469.597 152.961 466.277 152.076C462.847 151.246 460.025 150.388 457.811 149.503C455.653 148.618 453.772 147.262 452.167 145.436C450.618 143.61 449.843 141.148 449.843 138.049C449.843 135.504 450.563 133.18 452.001 131.077C453.495 128.974 455.598 127.314 458.309 126.097C461.076 124.88 464.313 124.271 468.02 124.271C473.498 124.271 477.87 125.654 481.134 128.421C484.399 131.132 486.197 134.812 486.529 139.46H475.407C475.241 137.634 474.467 136.195 473.083 135.144C471.755 134.037 469.957 133.484 467.688 133.484C465.586 133.484 463.953 133.871 462.791 134.646C461.685 135.421 461.131 136.5 461.131 137.883C461.131 139.432 461.906 140.622 463.455 141.452C465.005 142.227 467.412 143.029 470.676 143.859C473.996 144.689 476.735 145.547 478.893 146.432C481.051 147.317 482.905 148.701 484.454 150.582C486.059 152.408 486.889 154.843 486.944 157.886C486.944 160.542 486.197 162.921 484.703 165.024C483.265 167.127 481.162 168.787 478.395 170.004C475.684 171.166 472.502 171.747 468.85 171.747Z" fill="white"/>
</svg>
