<svg width="1200" height="627" viewBox="0 0 1200 627" fill="none" xmlns="http://www.w3.org/2000/svg">
<path d="M344.491 260.632V380.928L155.451 274.397C140.282 265.849 131 250.448 131 233.828V139.398L344.491 260.632Z" fill="#162084"/>
<path d="M344.491 380.474V260.18L131 380.474V501.694L344.491 380.474Z" fill="#D8D8D8" fill-opacity="0.87"/>
<path d="M520.809 274.174H475.261L467.726 294.65H443.641L484.762 187.038H511.47L552.591 294.65H528.344L520.809 274.174ZM514.583 256.932L498.033 211.979L481.487 256.932H514.583ZM619.079 208.13C625.961 208.13 632.078 209.567 637.432 212.44C642.783 215.212 646.933 219.368 649.88 224.91C652.94 230.35 654.469 236.919 654.469 244.616V294.65H631.531V247.541C631.531 240.767 629.731 235.584 626.127 231.992C622.52 228.297 617.607 226.45 611.381 226.45C605.046 226.45 600.02 228.297 596.307 231.992C592.703 235.584 590.9 240.767 590.9 247.541V294.65H567.962V180.727H590.9V219.984C593.85 216.289 597.782 213.415 602.695 211.363C607.612 209.207 613.071 208.13 619.079 208.13ZM760.659 250.158C760.659 253.237 760.44 256.008 760.002 258.472H693.648C694.196 264.63 696.49 269.453 700.531 272.943C704.572 276.433 709.542 278.177 715.439 278.177C723.96 278.177 730.019 274.739 733.623 267.863H758.365C755.742 276.073 750.72 282.847 743.29 288.184C735.864 293.418 726.744 296.036 715.93 296.036C707.191 296.036 699.327 294.239 692.339 290.647C685.457 286.952 680.049 281.769 676.118 275.098C672.295 268.427 670.382 260.729 670.382 252.006C670.382 243.179 672.295 235.43 676.118 228.759C679.94 222.088 685.294 216.956 692.173 213.364C699.056 209.772 706.972 207.976 715.93 207.976C724.559 207.976 732.261 209.72 739.03 213.21C745.913 216.7 751.21 221.677 754.923 228.143C758.746 234.507 760.659 241.845 760.659 250.158ZM736.902 244C736.792 238.458 734.66 234.045 730.51 230.76C726.359 227.374 721.28 225.68 715.273 225.68C709.594 225.68 704.791 227.322 700.855 230.607C697.033 233.788 694.686 238.253 693.811 244H736.902ZM771.501 251.698C771.501 243.077 773.305 235.43 776.909 228.759C780.622 222.088 785.591 216.956 791.817 213.364C798.152 209.772 805.197 207.976 812.951 207.976C819.724 207.976 825.622 209.259 830.648 211.824C835.78 214.39 839.878 217.623 842.934 221.523V209.361H866.034V294.65H842.934V282.18C839.987 286.183 835.889 289.518 830.648 292.187C825.513 294.752 819.562 296.036 812.789 296.036C805.144 296.036 798.152 294.188 791.817 290.493C785.591 286.799 780.622 281.616 776.909 274.944C773.305 268.171 771.501 260.422 771.501 251.698ZM842.934 252.006C842.934 246.771 841.844 242.307 839.659 238.612C837.474 234.815 834.523 231.941 830.81 229.991C827.098 227.938 823.109 226.912 818.849 226.912C814.589 226.912 810.657 227.887 807.054 229.837C803.45 231.787 800.499 234.661 798.205 238.458C796.024 242.153 794.93 246.566 794.93 251.698C794.93 256.83 796.024 261.345 798.205 265.245C800.499 269.043 803.45 271.968 807.054 274.021C810.767 276.073 814.698 277.1 818.849 277.1C823.109 277.1 827.098 276.124 830.81 274.174C834.523 272.122 837.474 269.248 839.659 265.553C841.844 261.756 842.934 257.24 842.934 252.006ZM882.539 251.698C882.539 243.077 884.343 235.43 887.947 228.759C891.66 222.088 896.686 216.956 903.021 213.364C909.353 209.772 916.401 207.976 924.155 207.976C930.053 207.976 935.679 209.207 941.03 211.671C946.38 214.031 950.64 217.213 953.81 221.216V180.727H977.072V294.65H953.81V282.026C950.968 286.234 946.984 289.621 941.848 292.187C936.717 294.752 930.762 296.036 923.989 296.036C916.345 296.036 909.353 294.188 903.021 290.493C896.686 286.799 891.66 281.616 887.947 274.944C884.343 268.171 882.539 260.422 882.539 251.698ZM953.972 252.006C953.972 246.771 952.882 242.307 950.697 238.612C948.512 234.815 945.561 231.941 941.848 229.991C938.136 227.938 934.147 226.912 929.887 226.912C925.631 226.912 921.695 227.887 918.092 229.837C914.488 231.787 911.537 234.661 909.247 238.458C907.062 242.153 905.968 246.566 905.968 251.698C905.968 256.83 907.062 261.345 909.247 265.245C911.537 269.043 914.488 271.968 918.092 274.021C921.804 276.073 925.736 277.1 929.887 277.1C934.147 277.1 938.136 276.124 941.848 274.174C945.561 272.122 948.512 269.248 950.697 265.553C952.882 261.756 953.972 257.24 953.972 252.006Z" fill="#162084"/>
<path d="M443.613 387.132C443.613 376.561 446.122 367.119 451.149 358.805C456.284 350.389 463.219 343.872 471.954 339.254C480.803 334.532 490.689 332.172 501.609 332.172C514.389 332.172 525.585 335.251 535.195 341.409C544.81 347.567 551.526 356.085 555.348 366.965H528.973C526.351 361.833 522.638 357.984 517.83 355.418C513.133 352.852 507.673 351.57 501.447 351.57C494.783 351.57 488.833 353.058 483.588 356.034C478.456 358.908 474.415 363.013 471.464 368.35C468.623 373.687 467.204 379.948 467.204 387.132C467.204 394.213 468.623 400.474 471.464 405.913C474.415 411.249 478.456 415.408 483.588 418.383C488.833 421.259 494.783 422.695 501.447 422.695C507.673 422.695 513.133 421.411 517.83 418.848C522.638 416.178 526.351 412.278 528.973 407.147H555.348C551.526 418.128 544.81 426.698 535.195 432.856C525.694 438.912 514.499 441.94 501.609 441.94C490.689 441.94 480.803 439.628 471.954 435.012C463.219 430.289 456.284 423.772 451.149 415.458C446.122 407.147 443.613 397.705 443.613 387.132ZM569.041 398.063C569.041 389.44 570.844 381.796 574.448 375.124C578.161 368.453 583.13 363.321 589.356 359.729C595.692 356.137 602.736 354.34 610.495 354.34C617.264 354.34 623.161 355.624 628.188 358.189C633.319 360.755 637.417 363.988 640.473 367.888V355.726H663.577V441.015H640.473V428.545C637.526 432.548 633.429 435.884 628.188 438.55C623.052 441.118 617.102 442.401 610.328 442.401C602.684 442.401 595.692 440.554 589.356 436.859C583.13 433.165 578.161 427.981 574.448 421.308C570.844 414.536 569.041 406.785 569.041 398.063ZM640.473 398.372C640.473 393.135 639.383 388.671 637.198 384.976C635.013 381.179 632.067 378.306 628.35 376.356C624.637 374.303 620.652 373.277 616.392 373.277C612.132 373.277 608.2 374.252 604.597 376.202C600.989 378.152 598.043 381.027 595.748 384.824C593.564 388.518 592.469 392.929 592.469 398.063C592.469 403.194 593.564 407.711 595.748 411.611C598.043 415.408 600.989 418.334 604.597 420.386C608.31 422.439 612.242 423.464 616.392 423.464C620.652 423.464 624.637 422.489 628.35 420.539C632.067 418.486 635.013 415.614 637.198 411.92C639.383 408.122 640.473 403.605 640.473 398.372ZM708.914 368.966C711.865 364.45 715.688 360.909 720.385 358.343C725.189 355.778 730.653 354.495 736.769 354.495V377.125H730.705C723.498 377.125 718.034 378.716 714.322 381.899C710.718 385.079 708.914 390.621 708.914 398.524V441.015H685.98V355.726H708.914V368.966ZM836.591 396.525C836.591 399.602 836.377 402.375 835.939 404.835H769.585C770.128 410.994 772.423 415.82 776.464 419.309C780.505 422.797 785.474 424.542 791.376 424.542C799.892 424.542 805.956 421.103 809.56 414.228H834.301C831.679 422.439 826.653 429.211 819.227 434.547C811.801 439.785 802.681 442.401 791.867 442.401C783.128 442.401 775.264 440.603 768.272 437.012C761.393 433.317 755.986 428.134 752.054 421.464C748.232 414.791 746.319 407.094 746.319 398.372C746.319 389.543 748.232 381.796 752.054 375.124C755.877 368.453 761.227 363.321 768.11 359.729C774.992 356.137 782.909 354.34 791.867 354.34C800.496 354.34 808.194 356.085 814.967 359.575C821.849 363.064 827.147 368.042 830.86 374.508C834.682 380.872 836.591 388.21 836.591 396.525ZM812.839 390.366C812.729 384.824 810.597 380.41 806.447 377.125C802.296 373.739 797.217 372.045 791.21 372.045C785.531 372.045 780.724 373.687 776.792 376.971C772.97 380.153 770.623 384.618 769.747 390.366H812.839ZM937.711 396.525C937.711 399.602 937.492 402.375 937.058 404.835H870.701C871.248 410.994 873.542 415.82 877.583 419.309C881.624 422.797 886.594 424.542 892.491 424.542C901.012 424.542 907.076 421.103 910.679 414.228H935.417C932.798 422.439 927.772 429.211 920.346 434.547C912.916 439.785 903.796 442.401 892.986 442.401C884.247 442.401 876.383 440.603 869.391 437.012C862.509 433.317 857.106 428.134 853.17 421.464C849.347 414.791 847.438 407.094 847.438 398.372C847.438 389.543 849.347 381.796 853.17 375.124C856.996 368.453 862.347 363.321 869.229 359.729C876.108 356.137 884.028 354.34 892.986 354.34C901.612 354.34 909.313 356.085 916.086 359.575C922.965 363.064 928.263 368.042 931.979 374.508C935.802 380.872 937.711 388.21 937.711 396.525ZM913.954 390.366C913.845 384.824 911.717 380.41 907.566 377.125C903.415 373.739 898.336 372.045 892.329 372.045C886.651 372.045 881.843 373.687 877.912 376.971C874.089 380.153 871.738 384.618 870.867 390.366H913.954ZM977.389 368.966C980.34 364.45 984.163 360.909 988.86 358.343C993.664 355.778 999.128 354.495 1005.24 354.495V377.125H999.18C991.973 377.125 986.509 378.716 982.797 381.899C979.193 385.079 977.389 390.621 977.389 398.524V441.015H954.455V355.726H977.389V368.966ZM1055.42 442.401C1048 442.401 1041.34 441.167 1035.44 438.707C1029.54 436.14 1024.84 432.7 1021.35 428.392C1017.96 424.081 1016.11 419.309 1015.78 414.072H1038.88C1039.32 417.358 1041.01 420.078 1043.96 422.234C1047.01 424.39 1050.78 425.467 1055.26 425.467C1059.63 425.467 1063.02 424.645 1065.42 423.003C1067.93 421.362 1069.19 419.255 1069.19 416.692C1069.19 413.919 1067.66 411.866 1064.6 410.533C1061.65 409.097 1056.9 407.555 1050.35 405.913C1043.58 404.374 1038 402.782 1033.63 401.141C1029.38 399.499 1025.66 396.985 1022.5 393.599C1019.43 390.21 1017.91 385.643 1017.91 379.897C1017.91 375.175 1019.33 370.865 1022.17 366.965C1025.12 363.064 1029.27 359.985 1034.62 357.728C1040.08 355.47 1046.47 354.34 1053.79 354.34C1064.6 354.34 1073.23 356.906 1079.68 362.038C1086.12 367.067 1089.67 373.892 1090.32 382.512H1068.37C1068.04 379.127 1066.51 376.458 1063.78 374.508C1061.16 372.455 1057.61 371.429 1053.13 371.429C1048.98 371.429 1045.76 372.148 1043.47 373.584C1041.28 375.021 1040.19 377.023 1040.19 379.588C1040.19 382.463 1041.72 384.668 1044.78 386.207C1047.84 387.646 1052.59 389.132 1059.03 390.674C1065.58 392.213 1070.99 393.805 1075.25 395.447C1079.51 397.088 1083.17 399.652 1086.23 403.144C1089.4 406.53 1091.03 411.047 1091.14 416.692C1091.14 421.617 1089.67 426.031 1086.72 429.931C1083.88 433.831 1079.73 436.909 1074.27 439.168C1068.91 441.323 1062.64 442.401 1055.42 442.401Z" fill="#162084"/>
</svg>
